<?xml version="1.0" encoding="utf-8"?>
<!-- Generator: Adobe Illustrator 16.0.4, SVG Export Plug-In . SVG Version: 6.00 Build 0)  -->
<!DOCTYPE svg PUBLIC "-//W3C//DTD SVG 1.1//EN" "http://www.w3.org/Graphics/SVG/1.1/DTD/svg11.dtd">
<svg version="1.1" id="Layer_1" xmlns="http://www.w3.org/2000/svg" xmlns:xlink="http://www.w3.org/1999/xlink" x="0px" y="0px"
	 width="920px" height="920px" viewBox="0 0 920 920" enable-background="new 0 0 920 920" xml:space="preserve">
<g>
	<defs>
		<rect id="SVGID_1_" width="920" height="920"/>
	</defs>
	<clipPath id="SVGID_2_">
		<use xlink:href="#SVGID_1_"  overflow="visible"/>
	</clipPath>
	<path clip-path="url(#SVGID_2_)" fill="#F6EB0F" d="M877.7,433C885,665.5,702.5,860,470,867.3C237.5,874.7,43,692.1,35.7,459.6
		c-7.4-232.5,175.2-427,407.7-434.3C675.9,18,870.3,200.5,877.7,433"/>
	<polygon clip-path="url(#SVGID_2_)" fill="#777777" points="494.5,516.5 487.4,493 495.3,502.6 501.8,514.7 	"/>
	<polygon clip-path="url(#SVGID_2_)" fill="#777777" points="473.5,425.8 483.2,439.6 497.3,457 530.8,527.4 513.3,508.9 
		508.5,495.7 499.9,493.9 492,460.4 484,454.6 476.1,443.1 	"/>
	<path clip-path="url(#SVGID_2_)" fill="#FFFFFF" d="M338.4,232.3c25.8-5.8,42.8-23.6,45.6-48.6c0.3-3-1.7-6.3-2.9-9.4
		c-8.2-20.3-2.6-41.3,14.5-54.4c17-13.1,40.9-13,57.8,0.2c16.7,13,23.3,35.6,13.7,54.6c-4.5,8.9,1.1,14,2.5,21
		c4.9,25.4,24.9,32.6,44.9,39.2c0.7-10.2,0-20.5,2.5-29.9c4.9-18.6,22.5-31.4,42.4-32.7c18.1-1.2,37.2,10.4,45.1,27.5
		c7.9,17.2,4,37.3-9.3,51.8c-4,4.4-7.5,10.1-9.1,15.8c-5.1,18.3-9.3,36.8-13.8,55.3c-5.2,21.5-13.6,26.1-34.7,20
		c-64.2-18.5-129.2-20.4-194.7-7.9c-1.6,0.3-3.1,1.4-4.6,2.1v-15.3c69.8-12.2,138.9-11.7,207.2,9.6c7.3,2.3,10.8-0.6,12.5-8
		c4.9-21.4,10.1-42.8,16-63.9c1.6-5.6,5.2-11.2,9.4-15.3c13.5-13.1,15.5-31.7,4-45.7c-10.6-13.1-30.7-16-44.7-6.4
		c-14.9,10.1-18.9,29.2-9.4,44.8c1.7,2.8,3.5,5.4,7.3,11.2c-12.2,0-22.2,1.6-31.4-0.4c-9.7-2.2-18.5-8.2-27.9-11.9
		c-9.7-3.9-15.5-10.2-19-20.3c-4-11.3-10.1-21.7-15.7-33.2c14.4-18,15.2-34.5,1.2-48.4c-12.3-12.2-31.6-13.1-45.1-2.1
		c-15.2,12.4-15.2,28.6-1.8,50.1c-6.1,13.8-11.3,26-17,38.1c-1.9,4-4.3,8.9-7.8,10.7c-12.3,6.4-25.2,11.7-37.9,17.4V232.3z"/>
	<path clip-path="url(#SVGID_2_)" fill="#FFFFFF" d="M338.4,257.8c14.6-6.6,29.4-12.8,43.7-20c3.7-1.8,6.8-6.1,8.7-10
		c3.9-7.9,6.9-16.3,10.1-24.6c4.3-10.9,13.2-16,23.8-15.8c10.5,0.2,19.5,5.3,23.3,16.4c0.1,0.4,0.4,0.8,0.5,1.2
		c6.2,34.2,34.1,44,61.6,52c10.2,3,22.7-2.4,34.2-3.7c5.1-0.6,11.9-2.8,15-0.4c3,2.3,3.5,9.8,2.6,14.6c-2.5,13.7-6.4,27.1-9.3,40.7
		c-2.3,10.5-8.4,11.7-17.9,10c-24.9-4.5-49.9-8.6-75-12.1c-36.5-5.1-72.6-0.6-108.7,4.6c-4.1,0.6-8.4,0.4-12.6,0.6v-12.7
		c66.7-12.7,133.1-10.3,201.1,6.2c3-12.2,5.8-23.7,9.2-37.9c-38.4,16-65.8-5.9-94.7-20.7c-3.6-1.9-6.1-6.9-8-11
		c-3.9-8.4-6.4-17.6-10.9-25.7c-2-3.7-7.3-7.3-11.4-7.6c-3.3-0.2-7.4,4.2-10.4,7.3c-1.9,2-2.8,5.2-3.5,8.1
		c-9.2,37.5-41.5,43.8-71.6,53.2V257.8z"/>
	<path clip-path="url(#SVGID_2_)" fill="#FFFFFF" d="M423.8,134c11.9-0.3,23,10.1,23.4,22c0.4,12-9.8,22.5-22.3,22.8
		c-12.7,0.3-22.7-9.2-22.9-21.7C401.8,144.5,411.4,134.3,423.8,134 M423.5,145.4c-9.6,0.5-9.7,8-9.3,12.2c0.3,3.5,7,9,10.7,8.8
		c3.6-0.2,9.7-6.4,9.6-9.9C434.5,152.4,433.2,144.9,423.5,145.4"/>
	<path clip-path="url(#SVGID_2_)" fill="#FFFFFF" d="M561.6,241.1c-12.8,0.1-22.5-9.7-22.5-22.5c0.1-12.4,9.1-21.5,21.6-21.8
		c12.8-0.3,23.2,9.2,23.6,21.6C584.6,230.4,574.1,241,561.6,241.1 M572.5,218.2c-0.4-9.3-7.5-9.8-11.7-9.5c-3.7,0.3-8,5-8,10
		c0.1,5.3,4.8,9.9,8.9,10.3C565.6,229.5,572.9,227.5,572.5,218.2"/>
	<path clip-path="url(#SVGID_2_)" fill="#BFBFBF" d="M526.5,692.8c-53.6,8-78.6,11.6-0.9,25c77.7,13.4,77.7,32.2-21.4,69.7
		c-57.7,21.8-125.7,39.8-195.4,53.2c50.1,18.8,104.5,28.3,161.3,26.5c143.8-4.5,268.4-80.6,340.9-193
		C716.8,683.8,570.5,686.2,526.5,692.8"/>
	<path clip-path="url(#SVGID_2_)" fill="#BFBFBF" d="M230.6,801.7C360,788.2,493.9,765.2,506.8,742c10.5-18.9-13.2-4.4-73.3-20.6
		c-46.5-12.5,38.4-38.4,92-41.1c53.2-2.7,261.7-14.5,291.5-16.1c40.8-67.3,63.2-146.8,60.5-231.3l-83.3,178.2l-159.1-26.5
		c0,0-202.2-66.3-212.2-69.6c-9.9-3.3-86.2-79.6-86.2-79.6l-69.6,56.4L91.5,561.5L35.7,459.6C40.3,604.2,117.2,729.4,230.6,801.7"/>
	<polyline clip-path="url(#SVGID_2_)" fill="none" stroke="#7B7B72" stroke-width="0.717" stroke-miterlimit="10" points="
		804.4,581.4 744.7,571.4 635.3,541.6 530,437.6 465.8,401.9 415.8,459 287.2,564.8 93.2,626.2 	"/>
	<path clip-path="url(#SVGID_2_)" fill="#ED3789" d="M55.2,804.7c140.3-2.5,432.3-36.9,451.7-71.7c10.5-18.9-13.2-4.4-73.3-20.6
		c-46.5-12.5,38.4-38.4,92-41.1s264.9-14.7,292.2-16.1c71.5-3.6,88.5-18.8,53.6-24.1c26.8-2.7,69.7,10.7-8,26.8
		c-77.7,16.1-283.3,17.9-336.9,25.9c-53.6,8-78.6,11.6-0.9,25c77.7,13.4,77.7,32.2-21.4,69.7c-126.4,47.8-302.1,77.3-437.4,80
		L55.2,804.7z"/>
</g>
</svg>
