<?xml version="1.0" encoding="utf-8"?>
<!-- Generator: Adobe Illustrator 16.0.4, SVG Export Plug-In . SVG Version: 6.00 Build 0)  -->
<!DOCTYPE svg PUBLIC "-//W3C//DTD SVG 1.1//EN" "http://www.w3.org/Graphics/SVG/1.1/DTD/svg11.dtd">
<svg version="1.1" id="Layer_1" xmlns="http://www.w3.org/2000/svg" xmlns:xlink="http://www.w3.org/1999/xlink" x="0px" y="0px"
	 width="38px" height="34px" viewBox="0 0 38 34" enable-background="new 0 0 38 34" xml:space="preserve">
<path fill="#67C6DA" d="M36.5,15.9c-0.4-0.4-1-0.7-1.6-0.8L31.1,15l-6.3-0.3L14.6,0.4l-3.3-0.2l3.8,13.9l-8-0.4L2.6,8.1L0.9,8
	l0.1,0.6l-0.3,0l1.7,6.9l0.2,1.2l-0.3,1.1L0,24.6l0.3,0l-0.2,0.6l1.7,0.1L6.9,20l8,0.3L9.8,33.9l3.3,0.1l11.4-13.4l6.3,0.3l3.7,0.2
	c0.7,0,1.2-0.2,1.7-0.6c0.6-0.5,1.1-1.3,1.1-2.1c0,0,0-0.1,0-0.1c0,0,0-0.1,0-0.1C37.4,17.3,37.1,16.5,36.5,15.9z"/>
</svg>
