<?xml version="1.0" encoding="utf-8"?>
<!-- Generator: Adobe Illustrator 16.0.4, SVG Export Plug-In . SVG Version: 6.00 Build 0)  -->
<!DOCTYPE svg PUBLIC "-//W3C//DTD SVG 1.1//EN" "http://www.w3.org/Graphics/SVG/1.1/DTD/svg11.dtd">
<svg version="1.1" id="Layer_1" xmlns="http://www.w3.org/2000/svg" xmlns:xlink="http://www.w3.org/1999/xlink" x="0px" y="0px"
	 width="358.1px" height="231.8px" viewBox="0 0 358.1 231.8" enable-background="new 0 0 358.1 231.8" xml:space="preserve">
<line fill="none" stroke="#676767" stroke-width="6.3089" stroke-linecap="round" stroke-miterlimit="10" x1="126.9" y1="57.6" x2="134.4" y2="81.4"/>
<path fill="#4E4E4E" d="M99.8,43L99.8,43c0.8-0.7,1.9-1.1,2.9-0.9l15.7,2.2c5,0.7,9.9,1.1,15,1.1h14.3c1.9,0,3.8,0.5,5.4,1.5
	l1.1,0.6c0.7,0.4,0.6,1.3-0.1,1.6L130,58.6c-4.1,1.6-8.5,2.5-12.9,2.5l0,0c-6.9,0-13.3-4-16.3-10.2L99.1,47
	C98.4,45.7,98.7,44,99.8,43z"/>
<line fill="none" stroke="#3C92D0" stroke-width="6.2738" stroke-linecap="round" stroke-miterlimit="10" x1="134.8" y1="85.2" x2="73.7" y2="160.1"/>
<circle fill="#3C92CF" cx="286.5" cy="160.1" r="11.4"/>
<line fill="none" stroke="#3C92D0" stroke-width="6.2738" stroke-linecap="round" stroke-miterlimit="10" x1="73.7" y1="160.1" x2="251.8" y2="59.7"/>
<line fill="none" stroke="#3C92D0" stroke-width="8.3651" stroke-linecap="round" stroke-miterlimit="10" x1="132.8" y1="76.1" x2="163.3" y2="174.1"/>
<line fill="none" stroke="#3C92CF" stroke-width="8.3651" stroke-linecap="round" stroke-miterlimit="10" x1="163.3" y1="174.1" x2="256.8" y2="74.3"/>
<path fill="none" stroke="#121212" stroke-width="7.2101" stroke-linecap="round" stroke-linejoin="round" stroke-miterlimit="10" d="
	M251.8,59.7L244.6,39l21.7-22.5c1.5-1.6,2.2-3.8,1.9-6l0,0c-0.6-3.6-3.9-6.2-7.6-5.8l-27.3,2.8"/>
<line fill="none" stroke="#3C92CF" stroke-width="8.3651" stroke-linecap="round" stroke-linejoin="round" stroke-miterlimit="10" x1="286.5" y1="160.2" x2="251.8" y2="59.7"/>
<circle fill="#A3A2A2" cx="286.5" cy="160.1" r="4.1"/>
<line fill="none" stroke="#3C92CF" stroke-width="6.2738" stroke-linecap="round" stroke-miterlimit="10" x1="73.7" y1="160.1" x2="163.3" y2="174.1"/>
<line fill="none" stroke="#676767" stroke-width="2.0913" stroke-linecap="round" stroke-linejoin="round" stroke-miterlimit="10" x1="161.4" y1="152" x2="73.7" y2="149.7"/>
<line fill="none" stroke="#676767" stroke-width="2.0913" stroke-linecap="round" stroke-linejoin="round" stroke-miterlimit="10" x1="73.7" y1="170.6" x2="156.3" y2="195.3"/>
<circle fill="#3C92CF" cx="73.7" cy="160.1" r="12.3"/>
<circle fill="#A3A2A2" cx="73.7" cy="160.1" r="5.7"/>
<line fill="none" stroke="#4E4E4E" stroke-width="10.8152" stroke-linecap="round" stroke-miterlimit="10" x1="233.3" y1="7.6" x2="254.6" y2="5.4"/>
<path fill="#4E4E4E" d="M268.2,80.5c-4.4,0.8-8.5-1.6-9.2-5.4c-0.7-3.8,2.3-7.5,6.7-8.3L268.2,80.5z"/>
<ellipse transform="matrix(0.9833 -0.182 0.182 0.9833 -8.9433 49.7957)" fill="#F28F20" cx="266.9" cy="73.6" rx="1.3" ry="7"/>
</svg>
