<?xml version="1.0" encoding="utf-8"?>
<!-- Generator: Adobe Illustrator 16.0.4, SVG Export Plug-In . SVG Version: 6.00 Build 0)  -->
<!DOCTYPE svg PUBLIC "-//W3C//DTD SVG 1.1//EN" "http://www.w3.org/Graphics/SVG/1.1/DTD/svg11.dtd">
<svg version="1.1" id="Layer_1" xmlns="http://www.w3.org/2000/svg" xmlns:xlink="http://www.w3.org/1999/xlink" x="0px" y="0px"
	 width="75.3px" height="68.8px" viewBox="0 0 75.3 68.8" enable-background="new 0 0 75.3 68.8" xml:space="preserve">
<g>
	<circle fill="none" stroke="#676767" stroke-width="2.0913" stroke-miterlimit="10" cx="37.8" cy="34.5" r="22.3"/>
	<circle fill="none" stroke="#676767" stroke-width="2.0913" stroke-miterlimit="10" cx="37.8" cy="34.5" r="16.7"/>
	<line fill="none" stroke="#676767" stroke-width="2.0913" stroke-miterlimit="10" x1="37.8" y1="34.5" x2="20.7" y2="20.2"/>
	<line fill="none" stroke="#676767" stroke-width="2.0913" stroke-miterlimit="10" x1="37.8" y1="34.5" x2="16.9" y2="42.2"/>
	<line fill="none" stroke="#676767" stroke-width="2.0913" stroke-miterlimit="10" x1="37.8" y1="34.5" x2="34" y2="56.4"/>
	<line fill="none" stroke="#676767" stroke-width="2.0913" stroke-miterlimit="10" x1="37.8" y1="34.5" x2="54.9" y2="48.7"/>
	<line fill="none" stroke="#676767" stroke-width="2.0913" stroke-miterlimit="10" x1="37.8" y1="34.5" x2="58.7" y2="26.8"/>
	<line fill="none" stroke="#676767" stroke-width="2.0913" stroke-miterlimit="10" x1="37.8" y1="34.5" x2="41.6" y2="12.5"/>
</g>
<g>
	
		<line fill="none" stroke="#4E4E4E" stroke-width="4.1825" stroke-linecap="round" stroke-miterlimit="10" x1="36.6" y1="64.9" x2="37.8" y2="34.5"/>
	<circle fill="#A3A2A2" cx="37.8" cy="34.5" r="3.3"/>
	<path fill="#4E4E4E" d="M44.4,68.7l-15.4,0.2c-0.5,0-1-0.4-1-1l0-2.1c0-0.5,0.4-1,1-1l15.4-0.2c0.5,0,1,0.4,1,1l0,2.1
		C45.4,68.2,45,68.6,44.4,68.7z"/>
	<g>
		<circle fill="#F28F20" cx="36.7" cy="66.7" r="1.2"/>
		<circle fill="#F28F20" cx="33.5" cy="66.7" r="0.8"/>
		<circle fill="#F28F20" cx="39.8" cy="66.6" r="0.8"/>
		<circle fill="#F28F20" cx="30.5" cy="66.8" r="1.2"/>
		<circle fill="#F28F20" cx="42.9" cy="66.6" r="1.2"/>
	</g>
</g>
</svg>
