<?xml version="1.0" encoding="utf-8"?>
<!-- Generator: Adobe Illustrator 16.0.4, SVG Export Plug-In . SVG Version: 6.00 Build 0)  -->
<!DOCTYPE svg PUBLIC "-//W3C//DTD SVG 1.1//EN" "http://www.w3.org/Graphics/SVG/1.1/DTD/svg11.dtd">
<svg version="1.1" id="Layer_1" xmlns="http://www.w3.org/2000/svg" xmlns:xlink="http://www.w3.org/1999/xlink" x="0px" y="0px"
	 width="143.3px" height="143.3px" viewBox="0 0 143.3 143.3" enable-background="new 0 0 143.3 143.3" xml:space="preserve">
<g>
	<g>
		<polyline fill="none" stroke="#4E4E4E" stroke-width="1.5685" stroke-miterlimit="10" points="23.9,27.8 71.6,71.6 27.8,23.9 		
			"/>
		<polyline fill="none" stroke="#4E4E4E" stroke-width="1.5685" stroke-miterlimit="10" points="8.4,57.5 71.6,71.6 9.9,52.2 		"/>
		<polyline fill="none" stroke="#4E4E4E" stroke-width="1.5685" stroke-miterlimit="10" points="9.9,91 71.6,71.6 8.4,85.7 		"/>
		<polyline fill="none" stroke="#4E4E4E" stroke-width="1.5685" stroke-miterlimit="10" points="27.8,119.3 71.6,71.6 23.9,115.4 		
			"/>
		<polyline fill="none" stroke="#4E4E4E" stroke-width="1.5685" stroke-miterlimit="10" points="57.5,134.8 71.6,71.6 52.2,133.4 		
			"/>
		<polyline fill="none" stroke="#4E4E4E" stroke-width="1.5685" stroke-miterlimit="10" points="91,133.4 71.6,71.6 85.7,134.8 		
			"/>
		<polyline fill="none" stroke="#4E4E4E" stroke-width="1.5685" stroke-miterlimit="10" points="119.3,115.4 71.6,71.6 115.4,119.3 
					"/>
		<polyline fill="none" stroke="#4E4E4E" stroke-width="1.5685" stroke-miterlimit="10" points="134.8,85.7 71.6,71.6 133.4,91 		
			"/>
		<polyline fill="none" stroke="#4E4E4E" stroke-width="1.5685" stroke-miterlimit="10" points="133.4,52.2 71.6,71.6 134.8,57.5 		
			"/>
		<polyline fill="none" stroke="#4E4E4E" stroke-width="1.5685" stroke-miterlimit="10" points="115.4,23.9 71.6,71.6 119.3,27.8 		
			"/>
		<polyline fill="none" stroke="#4E4E4E" stroke-width="1.5685" stroke-miterlimit="10" points="85.7,8.4 71.6,71.6 91,9.9 		"/>
		<polyline fill="none" stroke="#4E4E4E" stroke-width="1.5685" stroke-miterlimit="10" points="52.2,9.9 71.6,71.6 57.5,8.4 		"/>
	</g>
	<circle fill="none" stroke="#E2E2E2" stroke-width="6.2738" stroke-miterlimit="10" cx="71.6" cy="71.6" r="64.7"/>
	<circle fill="none" stroke="#4E4E4E" stroke-width="4.1825" stroke-miterlimit="10" cx="71.6" cy="71.6" r="69.5"/>
	<circle fill="none" stroke="#4E4E4E" stroke-width="2.0913" stroke-miterlimit="10" cx="71.6" cy="71.6" r="61.2"/>
</g>
</svg>
