<?xml version="1.0" encoding="utf-8"?>
<!-- Generator: Adobe Illustrator 16.0.4, SVG Export Plug-In . SVG Version: 6.00 Build 0)  -->
<!DOCTYPE svg PUBLIC "-//W3C//DTD SVG 1.1//EN" "http://www.w3.org/Graphics/SVG/1.1/DTD/svg11.dtd">
<svg version="1.1" id="Layer_1" xmlns="http://www.w3.org/2000/svg" xmlns:xlink="http://www.w3.org/1999/xlink" x="0px" y="0px"
	 width="360.569px" height="225.048px" viewBox="0 0 360.569 225.048" enable-background="new 0 0 360.569 225.048"
	 xml:space="preserve">
<polygon fill="#4C1E18" points="26.161,155.468 35.261,174.225 91.563,126.727 "/>
<polygon fill="#67311B" points="13.495,131.885 91.563,126.727 77.559,68.647 "/>
<polygon fill="#512017" points="13.495,131.885 26.161,155.468 91.563,126.727 "/>
<polygon fill="#745521" points="16.777,55.027 77.559,68.647 48.056,6.32 "/>
<polygon fill="#5E2B1D" points="103.679,174.711 143.317,189.653 156.399,127.331 "/>
<polygon fill="#501E18" points="91.563,126.727 35.261,174.225 103.679,174.711 "/>
<polygon fill="#66331A" points="0,110.088 77.559,68.647 16.777,55.027 "/>
<polygon fill="#5C281B" points="13.495,131.885 77.559,68.647 0,110.088 "/>
<polygon fill="#44161C" points="35.261,174.225 48.083,193.29 103.679,174.711 "/>
<polygon fill="#65331D" points="91.563,126.727 103.679,174.711 156.399,127.331 "/>
<polygon fill="#A0752B" points="110.339,0 77.559,68.647 139.904,62.893 "/>
<polygon fill="#8B6D2A" points="48.056,6.32 77.559,68.647 110.339,0 "/>
<polygon fill="#854C20" points="139.904,62.893 91.563,126.727 156.399,127.331 "/>
<polygon fill="#8B6D2A" points="77.559,68.647 91.563,126.727 139.904,62.893 "/>
<polygon fill="#58221E" points="240.569,225.048 211.563,175.435 143.317,189.653 "/>
<polygon fill="#501E18" points="103.679,174.711 48.083,193.29 143.317,189.653 "/>
<polygon fill="#CD8C34" points="177.377,10.963 139.904,62.893 182.275,59.264 "/>
<polygon fill="#C79833" points="110.339,0 139.904,62.893 177.377,10.963 "/>
<polygon fill="#B6612F" points="182.275,59.264 139.904,62.893 186.825,99.802 "/>
<polygon fill="#9B5B25" points="139.904,62.893 156.399,127.331 186.825,99.802 "/>
<polygon fill="#4C1F18" points="240.569,225.048 143.317,189.653 48.083,193.29 "/>
<polygon fill="#843F27" points="186.825,99.802 156.399,127.331 211.563,175.435 "/>
<polygon fill="#6A2F20" points="156.399,127.331 143.317,189.653 211.563,175.435 "/>
<polygon fill="#BA6F2D" points="182.275,59.264 186.825,99.802 219.299,68.668 "/>
<polygon fill="#EA9E43" points="177.377,10.963 182.275,59.264 236.872,25.379 "/>
<polygon fill="#D79841" points="182.275,59.264 219.299,68.668 236.872,25.379 "/>
<line fill="#252834" x1="336.952" y1="186.551" x2="239.661" y2="225.048"/>
<polygon fill="#A55F32" points="219.299,68.668 186.825,99.802 264.739,116.442 "/>
<polygon fill="#612821" points="240.569,225.048 253.934,164.543 211.563,175.435 "/>
<polygon fill="#76392A" points="211.563,175.435 253.934,164.543 264.739,116.442 "/>
<polygon fill="#8D4428" points="186.825,99.802 211.563,175.435 264.739,116.442 "/>
<polygon fill="#AA6E39" points="219.299,68.668 264.739,116.442 274.975,68.035 "/>
<polygon fill="#D1893D" points="236.872,25.379 219.299,68.668 274.975,68.035 "/>
<polygon fill="#91693E" points="323.887,92.843 274.975,68.035 264.739,116.442 "/>
<polygon fill="#572A2B" points="240.569,225.048 302.274,166.662 253.934,164.543 "/>
<polygon fill="#6D3D36" points="264.704,116.442 253.629,164.834 303.182,166.965 "/>
<polygon fill="#462634" points="337.536,187.233 302.274,166.662 240.569,225.048 "/>
<line fill="#462634" x1="240.569" y1="225.048" x2="337.536" y2="187.233"/>
<polygon fill="#6E4D40" points="323.887,92.843 264.739,116.442 302.274,166.662 "/>
<polygon fill="#6D3D36" points="323.887,92.843 302.274,166.662 360.569,148.208 "/>
<polygon fill="#58233B" points="360.569,148.208 302.274,166.662 337.536,187.233 "/>
</svg>
