<?xml version="1.0" encoding="utf-8"?>
<!-- Generator: Adobe Illustrator 16.0.4, SVG Export Plug-In . SVG Version: 6.00 Build 0)  -->
<!DOCTYPE svg PUBLIC "-//W3C//DTD SVG 1.1//EN" "http://www.w3.org/Graphics/SVG/1.1/DTD/svg11.dtd">
<svg version="1.1" id="Layer_1" xmlns="http://www.w3.org/2000/svg" xmlns:xlink="http://www.w3.org/1999/xlink" x="0px" y="0px"
	 width="216px" height="216px" viewBox="0 0 216 216" enable-background="new 0 0 216 216" xml:space="preserve">
<g id="icon_26_">
	<g>
		<path fill="#FFFFFF" d="M107.9,159.8c-1.3,0-2.3-1-2.3-2.3V58.4c0-1.3,1-2.3,2.3-2.3c1.3,0,2.3,1,2.3,2.3v99.1
			C110.2,158.7,109.2,159.8,107.9,159.8z"/>
		<path fill="#FFFFFF" d="M72.9,145.2c-0.6,0-1.2-0.2-1.6-0.7c-0.9-0.9-0.9-2.4,0-3.3l70.1-70.1c0.9-0.9,2.4-0.9,3.3,0
			c0.9,0.9,0.9,2.4,0,3.3l-70.1,70.1C74,145,73.5,145.2,72.9,145.2z"/>
		<path fill="#FFFFFF" d="M157.4,110.2H58.3c-1.3,0-2.3-1-2.3-2.3s1-2.3,2.3-2.3h99.1c1.3,0,2.3,1,2.3,2.3S158.7,110.2,157.4,110.2z
			"/>
		<path fill="#FFFFFF" d="M142.9,145.2c-0.6,0-1.2-0.2-1.6-0.7L71.2,74.5c-0.9-0.9-0.9-2.4,0-3.3c0.9-0.9,2.4-0.9,3.3,0l70.1,70.1
			c0.9,0.9,0.9,2.4,0,3.3C144.1,145,143.5,145.2,142.9,145.2z"/>
	</g>
	<g>
		<g>
			<polygon fill="#F26D40" points="74.9,140.9 107.9,154.6 107.9,107.9 			"/>
			<polygon fill="#F26D40" points="108,61.2 107.9,107.9 141,74.9 			"/>
			<g>
				<g>
					<polygon fill="#FFD45C" points="108,61.2 74.9,74.8 107.9,107.9 					"/>
					<polygon fill="#FFD45C" points="140.9,140.9 107.9,107.9 107.9,154.6 					"/>
				</g>
			</g>
		</g>
		<g>
			<polygon fill="#FFD45C" points="61.2,107.8 74.9,140.9 107.9,107.9 			"/>
			<polygon fill="#FFD45C" points="141,74.9 107.9,107.9 154.6,107.9 			"/>
		</g>
		<g>
			<polygon fill="#F26D40" points="74.9,74.8 61.2,107.8 107.9,107.9 			"/>
			<polygon fill="#F26D40" points="154.6,107.9 107.9,107.9 140.9,140.9 			"/>
		</g>
		<path fill="#FFFFFF" d="M111.7,107.9c0,2.2-1.8,4-4,4c-2.2,0-4-1.8-4-4c0-2.2,1.8-4,4-4C109.9,104,111.7,105.7,111.7,107.9z"/>
	</g>
</g>
</svg>
